<svg width="15" height="4" viewBox="0 0 15 4" fill="none" xmlns="http://www.w3.org/2000/svg">
<path d="M3.19724 1.59067C3.19724 0.707847 2.4894 0 1.59067 0C0.707847 0 0 0.707847 0 1.59067C0 2.47349 0.707847 3.18134 1.59067 3.18134C2.4894 3.18134 3.19724 2.47349 3.19724 1.59067ZM9.08271 1.59067C9.08271 0.707847 8.38282 0 7.49999 0C6.61718 0 5.91729 0.707847 5.91729 1.59067C5.91729 2.47349 6.61718 3.18134 7.49999 3.18134C8.38282 3.18134 9.08271 2.47349 9.08271 1.59067ZM15 1.59067C15 0.707847 14.2842 0 13.4093 0C12.5106 0 11.8028 0.707847 11.8028 1.59067C11.8028 2.47349 12.5106 3.18134 13.4093 3.18134C14.2842 3.18134 15 2.47349 15 1.59067Z" fill="#3A3A3A"/>
</svg>
