<svg width="339" height="775" viewBox="0 0 339 775" fill="none" xmlns="http://www.w3.org/2000/svg">
<path d="M338.5 0.5H32C26.3912 0.5 22.2147 0.500389 18.9048 0.770823C15.6006 1.04078 13.2041 1.57734 11.1472 2.62537C7.47803 4.4949 4.4949 7.47802 2.62537 11.1472C1.57733 13.2041 1.04077 15.6006 0.770813 18.9048C0.500397 22.2147 0.5 26.3912 0.5 32V743C0.5 748.609 0.500397 752.785 0.770813 756.095C1.04077 759.399 1.57733 761.796 2.62537 763.853C4.4949 767.522 7.47803 770.505 11.1472 772.375C13.2041 773.423 15.6006 773.959 18.9048 774.229C22.2147 774.5 26.3912 774.5 32 774.5H338.5V0.5Z" fill="white" stroke="black"/>
</svg>
