<svg width="24" height="12" viewBox="0 0 24 12" fill="none" xmlns="http://www.w3.org/2000/svg">
<path d="M0.692762 1.37377H22.7906C23.1781 1.37377 23.4951 1.0685 23.4951 0.681019C23.4951 0.305285 23.1781 0 22.7906 0H0.692762C0.305285 0 0 0.305285 0 0.681019C0 1.0685 0.305285 1.37377 0.692762 1.37377ZM0.692762 6.69276H22.7906C23.1781 6.69276 23.4951 6.38747 23.4951 6C23.4951 5.61252 23.1781 5.30724 22.7906 5.30724H0.692762C0.305285 5.30724 0 5.61252 0 6C0 6.38747 0.305285 6.69276 0.692762 6.69276ZM0.692762 12H22.7906C23.1781 12 23.4951 11.6948 23.4951 11.3072C23.4951 10.9197 23.1781 10.6144 22.7906 10.6144H0.692762C0.305285 10.6144 0 10.9197 0 11.3072C0 11.6948 0.305285 12 0.692762 12Z" fill="black"/>
</svg>
