<svg width="315" height="22" viewBox="0 0 315 22" fill="none" xmlns="http://www.w3.org/2000/svg">
<line y1="21.5" x2="315" y2="21.5" stroke="#2343FD"/>
<path d="M285 0C281.561 0 278.442 2.10432 276.141 5.5223C275.953 5.80233 275.953 6.19355 276.141 6.47358C278.442 9.89568 281.561 12 285 12C288.439 12 291.558 9.89568 293.859 6.4777C294.047 6.19767 294.047 5.80645 293.859 5.52642C291.558 2.10432 288.439 0 285 0ZM285.247 10.2251C282.964 10.3857 281.079 8.2814 281.222 5.72409C281.34 3.61565 282.868 1.90666 284.753 1.77488C287.036 1.61428 288.921 3.7186 288.778 6.27591C288.656 8.38023 287.128 10.0892 285.247 10.2251ZM285.133 8.27316C283.903 8.35964 282.886 7.22718 282.967 5.85175C283.03 4.71517 283.855 3.79684 284.871 3.72272C286.101 3.63624 287.117 4.7687 287.036 6.14413C286.97 7.28483 286.145 8.20316 285.133 8.27316Z" fill="#292929"/>
</svg>
